<svg width="142" height="47" viewBox="0 0 142 47" fill="none" xmlns="http://www.w3.org/2000/svg">
<g filter="url(#filter0_d_6_3)">
<path d="M22.12 23.08H23.16V29.6H4V28.56L6.2 28.32C6.62667 28.2666 6.88 28.16 6.96 28C7.04 27.84 7.08 27.2933 7.08 26.36V5.63997C7.08 4.70664 7.04 4.15997 6.96 3.99997C6.88 3.83997 6.62667 3.73331 6.2 3.67998L4 3.47997V2.39998H22.64V8.91997H21.64L20.48 4.71997C20.4 4.39997 20.3067 4.17331 20.2 4.03997C20.12 3.87997 19.9467 3.78664 19.68 3.75997C19.4133 3.70664 18.96 3.67998 18.32 3.67998H10.56V15.24H15.92C16.56 15.24 17.0133 15.2266 17.28 15.2C17.5467 15.1466 17.72 15.0533 17.8 14.92C17.9067 14.76 18 14.52 18.08 14.2L18.84 11.2H19.88V20.56H18.84L18.08 17.56C18 17.24 17.9067 17.0133 17.8 16.88C17.72 16.72 17.5467 16.6266 17.28 16.6C17.0133 16.5466 16.56 16.52 15.92 16.52H10.56V28.32H18.8C19.44 28.32 19.8933 28.3066 20.16 28.28C20.4267 28.2266 20.6 28.1333 20.68 28C20.7867 27.84 20.88 27.6 20.96 27.28L22.12 23.08ZM33.2431 28.56V29.6H25.6431V28.56L27.6831 28.32C27.9765 28.2933 28.1898 28.2533 28.3231 28.2C28.4831 28.12 28.6565 27.9733 28.8431 27.76C29.0298 27.52 29.2965 27.1333 29.6431 26.6L34.2431 19.96L29.8031 12.8C29.4831 12.2666 29.2298 11.8933 29.0431 11.68C28.8831 11.44 28.7231 11.2933 28.5631 11.24C28.4298 11.16 28.2298 11.1066 27.9631 11.08L25.8831 10.88V9.79997H35.2831V10.88L33.2431 11.08C32.8165 11.1333 32.6031 11.24 32.6031 11.4C32.6031 11.5333 32.8565 12 33.3631 12.8L36.4431 17.76L39.8431 12.8C40.3765 12.0266 40.6298 11.56 40.6031 11.4C40.6031 11.24 40.4031 11.1333 40.0031 11.08L37.9631 10.88V9.79997H45.5631V10.88L43.5231 11.08C43.2565 11.1066 43.0431 11.16 42.8831 11.24C42.7231 11.2933 42.5498 11.44 42.3631 11.68C42.2031 11.8933 41.9365 12.2666 41.5631 12.8L37.2431 19.04L41.9231 26.6C42.2431 27.1333 42.4831 27.52 42.6431 27.76C42.8298 27.9733 42.9898 28.12 43.1231 28.2C43.2831 28.2533 43.4965 28.2933 43.7631 28.32L45.8431 28.56V29.6H36.4431V28.56L38.4831 28.32C38.9098 28.2666 39.1231 28.1733 39.1231 28.04C39.1231 27.9066 38.8698 27.4266 38.3631 26.6L35.0431 21.24L31.3631 26.6C30.8298 27.4 30.5631 27.88 30.5631 28.04C30.5898 28.1733 30.8031 28.2666 31.2031 28.32L33.2431 28.56ZM47.3406 10.84V9.79997H53.5006V13C54.3006 11.7466 55.194 10.84 56.1806 10.28C57.194 9.69331 58.314 9.39998 59.5406 9.39998C61.834 9.39998 63.6073 10.2666 64.8606 12C66.1406 13.7333 66.7806 16.16 66.7806 19.28V20.08C66.7806 23.12 66.0473 25.5333 64.5806 27.32C63.114 29.1066 61.074 30 58.4606 30C56.594 30 55.0073 29.4266 53.7006 28.28V34.88C53.7006 35.7866 53.7406 36.32 53.8206 36.48C53.9006 36.6666 54.154 36.7866 54.5806 36.84L57.5806 37.04V38.12H47.3406V37.04L49.5406 36.84C49.9673 36.7866 50.2206 36.6666 50.3006 36.48C50.3806 36.32 50.4206 35.7866 50.4206 34.88V13.04C50.4206 12.1066 50.3806 11.56 50.3006 11.4C50.2206 11.24 49.9673 11.1333 49.5406 11.08L47.3406 10.84ZM59.0206 10.84C58.194 10.84 57.3273 11.1066 56.4206 11.64C55.5406 12.1733 54.634 13.2533 53.7006 14.88V26.32C54.8473 27.8933 56.3673 28.68 58.2606 28.68C59.994 28.68 61.2473 28.0266 62.0206 26.72C62.794 25.3866 63.1806 23.5733 63.1806 21.28V18.08C63.1806 15.5733 62.8206 13.7466 62.1006 12.6C61.3806 11.4266 60.354 10.84 59.0206 10.84ZM70.5438 1.07997V-2.47955e-05H76.9038V26.36C76.9038 27.2933 76.9438 27.84 77.0238 28C77.1038 28.16 77.3571 28.2666 77.7838 28.32L79.9838 28.56V29.6H70.5438V28.56L72.7438 28.32C73.1704 28.2666 73.4238 28.16 73.5038 28C73.5838 27.84 73.6238 27.2933 73.6238 26.36V3.23997C73.6238 2.30664 73.5838 1.75997 73.5038 1.59997C73.4238 1.43997 73.1704 1.33331 72.7438 1.27998L70.5438 1.07997ZM99.5825 25.04C99.1025 26.8533 98.1958 28.1333 96.8625 28.88C95.5558 29.6266 94.1025 30 92.5025 30C89.5425 30 87.3292 29.1066 85.8625 27.32C84.3958 25.5066 83.6625 23.0933 83.6625 20.08V19.28C83.6625 16.2933 84.3692 13.9066 85.7825 12.12C87.1958 10.3066 89.2492 9.39998 91.9425 9.39998C93.3825 9.39998 94.6892 9.69331 95.8625 10.28C97.0625 10.8666 98.0092 11.7333 98.7025 12.88C99.4225 14.0266 99.7825 15.4533 99.7825 17.16C99.7825 17.96 99.7025 18.8 99.5425 19.68H87.2625V20.88C87.2625 23.68 87.6892 25.6933 88.5425 26.92C89.4225 28.12 90.8358 28.72 92.7825 28.72C94.0092 28.72 95.0225 28.4 95.8225 27.76C96.6492 27.12 97.1958 26.0133 97.4625 24.44L99.5825 25.04ZM91.9425 10.68C90.3692 10.68 89.1958 11.28 88.4225 12.48C87.6492 13.68 87.2625 15.6533 87.2625 18.4H96.2625V18.28C96.3158 17.9333 96.3558 17.6 96.3825 17.28C96.4092 16.9333 96.4225 16.6266 96.4225 16.36C96.4225 14.36 96.0092 12.92 95.1825 12.04C94.3558 11.1333 93.2758 10.68 91.9425 10.68ZM111.998 21.52L109.558 20.92C106.225 20.0666 104.558 18.1466 104.558 15.16C104.558 14.1733 104.785 13.24 105.238 12.36C105.691 11.48 106.411 10.7733 107.398 10.24C108.411 9.67998 109.705 9.39998 111.278 9.39998C113.038 9.39998 114.451 9.69331 115.518 10.28C116.585 10.8666 117.331 11.6266 117.758 12.56C118.185 13.4933 118.318 14.5066 118.158 15.6L115.038 16.16C115.358 14.4266 115.171 13.08 114.478 12.12C113.811 11.16 112.705 10.68 111.158 10.68C109.958 10.68 108.998 10.9866 108.278 11.6C107.558 12.1866 107.198 13.0533 107.198 14.2C107.198 15.0533 107.465 15.8133 107.998 16.48C108.531 17.12 109.425 17.6 110.678 17.92L113.198 18.52C114.958 18.9466 116.318 19.6266 117.278 20.56C118.265 21.4933 118.758 22.72 118.758 24.24C118.758 25.9466 118.131 27.3333 116.878 28.4C115.651 29.4666 113.891 30 111.598 30C110.505 30 109.438 29.84 108.398 29.52C107.385 29.1733 106.491 28.64 105.718 27.92C104.971 27.1733 104.425 26.2133 104.078 25.04L106.318 24.24C106.611 25.92 107.251 27.0933 108.238 27.76C109.225 28.4266 110.358 28.76 111.638 28.76C112.385 28.76 113.091 28.64 113.758 28.4C114.451 28.16 115.011 27.7866 115.438 27.28C115.865 26.7466 116.078 26.0666 116.078 25.24C116.078 24.3866 115.785 23.6533 115.198 23.04C114.611 22.4266 113.545 21.92 111.998 21.52ZM130.943 21.52L128.503 20.92C125.17 20.0666 123.503 18.1466 123.503 15.16C123.503 14.1733 123.73 13.24 124.183 12.36C124.637 11.48 125.357 10.7733 126.343 10.24C127.357 9.67998 128.65 9.39998 130.223 9.39998C131.983 9.39998 133.397 9.69331 134.463 10.28C135.53 10.8666 136.277 11.6266 136.703 12.56C137.13 13.4933 137.263 14.5066 137.103 15.6L133.983 16.16C134.303 14.4266 134.117 13.08 133.423 12.12C132.757 11.16 131.65 10.68 130.103 10.68C128.903 10.68 127.943 10.9866 127.223 11.6C126.503 12.1866 126.143 13.0533 126.143 14.2C126.143 15.0533 126.41 15.8133 126.943 16.48C127.477 17.12 128.37 17.6 129.623 17.92L132.143 18.52C133.903 18.9466 135.263 19.6266 136.223 20.56C137.21 21.4933 137.703 22.72 137.703 24.24C137.703 25.9466 137.077 27.3333 135.823 28.4C134.597 29.4666 132.837 30 130.543 30C129.45 30 128.383 29.84 127.343 29.52C126.33 29.1733 125.437 28.64 124.663 27.92C123.917 27.1733 123.37 26.2133 123.023 25.04L125.263 24.24C125.557 25.92 126.197 27.0933 127.183 27.76C128.17 28.4266 129.303 28.76 130.583 28.76C131.33 28.76 132.037 28.64 132.703 28.4C133.397 28.16 133.957 27.7866 134.383 27.28C134.81 26.7466 135.023 26.0666 135.023 25.24C135.023 24.3866 134.73 23.6533 134.143 23.04C133.557 22.4266 132.49 21.92 130.943 21.52Z" fill="white"/>
</g>
<defs>
<filter id="filter0_d_6_3" x="0" y="0" width="141.703" height="46.12" filterUnits="userSpaceOnUse" color-interpolation-filters="sRGB">
<feFlood flood-opacity="0" result="BackgroundImageFix"/>
<feColorMatrix in="SourceAlpha" type="matrix" values="0 0 0 0 0 0 0 0 0 0 0 0 0 0 0 0 0 0 127 0" result="hardAlpha"/>
<feOffset dy="4"/>
<feGaussianBlur stdDeviation="2"/>
<feComposite in2="hardAlpha" operator="out"/>
<feColorMatrix type="matrix" values="0 0 0 0 0 0 0 0 0 0 0 0 0 0 0 0 0 0 0.25 0"/>
<feBlend mode="normal" in2="BackgroundImageFix" result="effect1_dropShadow_6_3"/>
<feBlend mode="normal" in="SourceGraphic" in2="effect1_dropShadow_6_3" result="shape"/>
</filter>
</defs>
</svg>
